<?xml version="1.0" encoding="UTF-8" standalone="no"?>
<!DOCTYPE svg PUBLIC "-//W3C//DTD SVG 1.1//EN" "http://www.w3.org/Graphics/SVG/1.1/DTD/svg11.dtd">
<svg width="100%" height="100%" viewBox="0 0 1000 1000" version="1.1" xmlns="http://www.w3.org/2000/svg" xmlns:xlink="http://www.w3.org/1999/xlink" xml:space="preserve" xmlns:serif="http://www.serif.com/" style="fill-rule:evenodd;clip-rule:evenodd;stroke-linejoin:round;stroke-miterlimit:2;">
    <g id="レイヤー1">
        <g transform="matrix(1.292297,4.579527,-6.856141,1.4357,3279.409776,-1506.216377)">
            <path d="M279.674,406.888C281.024,404.799 284.177,403.571 287.626,403.792C291.076,404.013 294.121,405.638 295.305,407.89C308.272,432.548 334.899,483.178 344.995,502.375C345.925,504.144 345.58,506.051 344.067,507.505C342.553,508.959 340.054,509.783 337.345,509.723C313.038,509.182 256.947,507.934 229.993,507.334C226.732,507.261 223.637,506.061 221.788,504.153C219.939,502.244 219.592,499.892 220.868,497.916C233.793,477.91 264.748,429.992 279.674,406.888Z" style="fill:rgb(51,246,252);fill-opacity:0.7;"/>
        </g>
        <g transform="matrix(-3.069877,-4.809048,5.063861,-2.398754,-1054.095606,3031.993705)">
            <path d="M280.787,405.165C282.288,402.842 284.995,401.666 287.901,402.073C290.806,402.481 293.475,404.411 294.914,407.146C307.354,430.801 333.223,479.991 344.056,500.59C345.145,502.661 345.196,505.025 344.19,506.875C343.184,508.724 341.258,509.81 339.068,509.761C316.708,509.264 262.116,508.049 233.38,507.409C229.907,507.332 226.528,505.25 224.655,502.034C222.783,498.818 222.738,495.022 224.541,492.231C239.351,469.306 267.543,425.666 280.787,405.165Z" style="fill:rgb(118,242,254);fill-opacity:0.7;"/>
        </g>
        <g transform="matrix(-0.784921,-5.271902,6.642468,-0.733889,-2376.149393,2311.285711)">
            <path d="M279.983,406.409C281.433,404.165 284.417,402.845 287.631,403.025C290.846,403.205 293.708,404.853 294.968,407.249C306.833,429.81 330.8,475.383 342.404,497.448C343.875,500.245 343.524,503.391 341.469,505.833C339.415,508.275 335.927,509.691 332.173,509.608C307.167,509.051 260.327,508.009 234.077,507.425C230.025,507.334 226.246,505.566 224.106,502.76C221.965,499.953 221.774,496.514 223.601,493.687C237.845,471.637 266.134,427.848 279.983,406.409Z" style="fill:rgb(48,221,253);fill-opacity:0.6;"/>
        </g>
        <g transform="matrix(0.848431,-5.23499,6.83511,0.727993,-2852.435155,1580.967607)">
            <path d="M278.315,408.991C280.037,406.326 283.569,404.601 287.345,404.581C291.121,404.561 294.442,406.25 295.835,408.899C309.077,434.077 335.395,484.122 345.199,502.763C346.014,504.312 345.708,506.12 344.39,507.543C343.073,508.967 340.931,509.803 338.728,509.754C317.12,509.273 266.529,508.147 237.167,507.493C232.211,507.383 227.788,505.369 225.373,502.122C222.957,498.875 222.866,494.824 225.131,491.318C239.202,469.537 264.486,430.398 278.315,408.991Z" style="fill:rgb(45,196,249);fill-opacity:0.5;"/>
        </g>
        <g transform="matrix(7.104438,0,0,6.119991,-2177.387186,-2316.035482)">
            <g transform="matrix(50,0,0,50,423.649742,470.127829)">
            </g>
            <text x="331.926px" y="470.128px" style="font-family:'ArialMT', 'Arial', sans-serif;font-size:50px;fill:white;stroke:white;stroke-width:0.94px;">Hub</text>
        </g>
    </g>
</svg>
